<?xml version="1.0" encoding="UTF-8"?>
<svg xmlns="http://www.w3.org/2000/svg" version="1.1" viewBox="0 0 4000 4000">
  <!-- Generator: Adobe Illustrator 29.5.1, SVG Export Plug-In . SVG Version: 2.1.0 Build 141)  -->
  <defs>
    <style>
      .st0 {
        fill: #37329e;
      }

      .st1 {
        fill: #175480;
      }

      .st2 {
        fill: #47b3cf;
      }

      .st3 {
        fill: #fff;
      }

      .st4 {
        fill: #def9ff;
      }

      .st5 {
        fill: #1aa8a8;
      }

      .st6 {
        fill: #aed0d9;
      }

      .st7 {
        fill: #46b3ca;
      }

      .st8 {
        display: none;
      }

      .st9 {
        fill: #0cb3c4;
        stroke: #231f20;
        stroke-miterlimit: 10;
      }
    </style>
  </defs>
  <g id="Layer_8" class="st8">
    <rect class="st6" x="-141.26" y="-144.05" width="4254.64" height="4275.53"/>
  </g>
  <g id="bg_blue">
    <path class="st4" d="M2027.53,597.19C1436.01,1143.88,780.83,1623.08,189.31,2169.77c0,245.87-2.49,722.08-2.49,967.94h3681.44v-972.18"/>
  </g>
  <g id="bg_white" class="st8">
    <path class="st3" d="M2027.53,597.19C1436.01,1143.88,780.83,1623.08,189.31,2169.77c0,245.87-2.49,722.08-2.49,967.94h3681.44v-972.18"/>
  </g>
  <g id="Layer_2">
    <path class="st1" d="M368.42,2229.29c265.38-253.52,530.76-507.04,796.14-760.56,2.67,8.02,5.35,16.05,8.02,24.07-109.08,208.64-218.15,417.28-327.23,625.93,135.83-137.61,271.65-275.22,407.48-412.83,66.28,90.95,132.56,181.89,198.83,272.84,49.04-159.9,98.08-319.8,147.12-479.7-109.97,12.48-219.94,24.97-329.9,37.45,244.31-246.09,488.62-492.18,732.92-738.27.59,14.86,1.19,29.72,1.78,44.58-130.48,277.89-260.95,555.79-391.43,833.68,143.26-150.39,286.51-300.78,429.77-451.17-7.73,83.52-15.45,167.03-23.18,250.55.89,251.14,1.78,502.29,2.67,753.43"/>
  </g>
  <g id="Layer_6">
    <g>
      <path class="st7" d="M489.14,2363.54c35.75,0,62.32,9.26,79.72,27.78,17.39,18.52,26.09,45.49,26.09,80.92,0,17.79-2.21,33.95-6.61,48.46-4.41,14.51-11.1,26.98-20.08,37.39-8.98,10.42-20.28,18.44-33.91,24.05-13.63,5.61-29.74,8.42-48.34,8.42h-18.52v124.57h-67.57v-351.58h89.22ZM484.09,2421.02h-16.59v111.82h11.78c10.74,0,19.72-2,26.93-6.01,7.21-4.01,12.66-10.42,16.35-19.24,3.69-8.82,5.53-20.44,5.53-34.87,0-17.95-3.65-31.06-10.94-39.32-7.3-8.25-18.32-12.38-33.07-12.38Z"/>
      <path class="st7" d="M880.64,2538.85c0,27.9-2.57,53.03-7.7,75.39-5.13,22.36-12.83,41.4-23.09,57.11-10.26,15.71-23.21,27.74-38.84,36.07-15.63,8.33-33.95,12.5-54.95,12.5s-39.6-4.21-55.31-12.62c-15.71-8.42-28.7-20.56-38.96-36.43-10.26-15.87-17.96-34.95-23.09-57.23-5.13-22.28-7.7-47.37-7.7-75.27,0-39.44,4.73-72.54,14.19-99.32,9.46-26.77,23.48-46.97,42.08-60.6,18.6-13.62,41.52-20.44,68.78-20.44s51.74,7.3,70.1,21.88c18.36,14.59,32.02,35.39,41,62.41,8.98,27.02,13.47,59.2,13.47,96.55ZM701,2538.85c0,26.93,2.08,49.42,6.25,67.46,4.17,18.04,10.34,31.58,18.52,40.64,8.18,9.06,18.28,13.59,30.3,13.59s22.32-4.41,30.42-13.23c8.09-8.81,14.19-22.2,18.28-40.16,4.09-17.95,6.13-40.72,6.13-68.3,0-41.2-4.57-71.86-13.71-91.98-9.14-20.12-22.85-30.18-41.12-30.18-12.02,0-22.12,4.57-30.3,13.71-8.18,9.14-14.35,22.77-18.52,40.88-4.17,18.12-6.25,40.64-6.25,67.57Z"/>
      <path class="st7" d="M933.3,2715.12v-351.58h67.57v292.9h93.55v58.68h-161.12Z"/>
      <path class="st7" d="M1288.73,2715.12l-18.28-84.65h-78.16l-18.28,84.65h-72.38l85.13-351.58h87.29l86.57,351.58h-71.9ZM1260.11,2571.8l-19-93.07c-1.29-7.7-2.52-15.23-3.73-22.61-1.2-7.37-2.33-14.47-3.37-21.28-1.04-6.81-1.97-13.19-2.77-19.12-.48,5.61-1.2,11.78-2.16,18.52s-2.09,13.79-3.37,21.16c-1.29,7.38-2.73,14.83-4.33,22.37l-18.76,94.03h57.47Z"/>
      <path class="st7" d="M1473.9,2363.54c25.97,0,47.53,3.77,64.69,11.3,17.15,7.54,29.94,18.84,38.36,33.91,8.42,15.07,12.62,33.99,12.62,56.75,0,14.43-1.77,27.53-5.29,39.32-3.53,11.78-9.02,22.29-16.47,31.5-7.46,9.22-16.95,17.28-28.5,24.17l72.38,154.63h-74.31l-57.47-137.79h-20.2v137.79h-67.57v-351.58h81.76ZM1473.42,2420.54h-13.71v103.41h15.15c15.07,0,26.49-4.57,34.27-13.71,7.77-9.14,11.66-22.92,11.66-41.36,0-16.51-3.89-28.7-11.66-36.55-7.78-7.85-19.68-11.78-35.71-11.78Z"/>
      <path class="st7" d="M1821.87,2363.54c35.75,0,62.32,9.26,79.72,27.78,17.39,18.52,26.09,45.49,26.09,80.92,0,17.79-2.21,33.95-6.61,48.46-4.41,14.51-11.1,26.98-20.08,37.39-8.98,10.42-20.28,18.44-33.91,24.05-13.63,5.61-29.74,8.42-48.34,8.42h-18.52v124.57h-67.57v-351.58h89.22ZM1816.82,2421.02h-16.59v111.82h11.78c10.74,0,19.72-2,26.93-6.01,7.21-4.01,12.66-10.42,16.35-19.24,3.69-8.82,5.53-20.44,5.53-34.87,0-17.95-3.65-31.06-10.94-39.32-7.3-8.25-18.32-12.38-33.07-12.38Z"/>
      <path class="st7" d="M2055.86,2363.54c25.97,0,47.53,3.77,64.69,11.3,17.15,7.54,29.94,18.84,38.36,33.91,8.42,15.07,12.62,33.99,12.62,56.75,0,14.43-1.77,27.53-5.29,39.32-3.53,11.78-9.02,22.29-16.47,31.5-7.46,9.22-16.95,17.28-28.5,24.17l72.38,154.63h-74.31l-57.47-137.79h-20.2v137.79h-67.57v-351.58h81.76ZM2055.38,2420.54h-13.71v103.41h15.15c15.07,0,26.49-4.57,34.27-13.71,7.77-9.14,11.66-22.92,11.66-41.36,0-16.51-3.89-28.7-11.66-36.55-7.78-7.85-19.68-11.78-35.71-11.78Z"/>
      <path class="st7" d="M2465.63,2538.85c0,27.9-2.57,53.03-7.7,75.39-5.13,22.36-12.83,41.4-23.09,57.11-10.26,15.71-23.21,27.74-38.84,36.07-15.63,8.33-33.95,12.5-54.95,12.5s-39.6-4.21-55.31-12.62c-15.71-8.42-28.7-20.56-38.96-36.43-10.26-15.87-17.96-34.95-23.09-57.23-5.13-22.28-7.7-47.37-7.7-75.27,0-39.44,4.73-72.54,14.19-99.32,9.46-26.77,23.48-46.97,42.08-60.6,18.6-13.62,41.52-20.44,68.78-20.44s51.74,7.3,70.1,21.88c18.35,14.59,32.02,35.39,41,62.41,8.98,27.02,13.47,59.2,13.47,96.55ZM2286,2538.85c0,26.93,2.08,49.42,6.25,67.46,4.17,18.04,10.34,31.58,18.52,40.64,8.18,9.06,18.28,13.59,30.3,13.59s22.32-4.41,30.42-13.23c8.09-8.81,14.19-22.2,18.28-40.16,4.09-17.95,6.13-40.72,6.13-68.3,0-41.2-4.57-71.86-13.71-91.98-9.14-20.12-22.85-30.18-41.12-30.18-12.02,0-22.12,4.57-30.3,13.71-8.18,9.14-14.35,22.77-18.52,40.88-4.17,18.12-6.25,40.64-6.25,67.57Z"/>
      <path class="st7" d="M2740.98,2532.84c0,39.28-5.41,72.47-16.23,99.56-10.82,27.09-26.61,47.66-47.37,61.68-20.76,14.03-46.21,21.04-76.35,21.04h-82.72v-351.58h87.77c28.86,0,53.35,6.49,73.47,19.48,20.12,12.99,35.39,32.07,45.81,57.23,10.42,25.17,15.63,56.03,15.63,92.58ZM2671.49,2535.97c0-26.29-2.49-47.86-7.46-64.69-4.97-16.83-12.38-29.26-22.24-37.27-9.86-8.01-22.09-12.02-36.67-12.02h-19.24v233.99h14.67c24.37,0,42.28-9.86,53.75-29.58,11.46-19.72,17.19-49.86,17.19-90.42Z"/>
      <path class="st7" d="M3009.36,2363.54v235.91c0,26.93-4.17,49.3-12.5,67.09-8.34,17.8-20.6,31.14-36.79,40.04-16.19,8.9-36.23,13.35-60.12,13.35-34.79,0-61.53-9.82-80.2-29.46-18.68-19.64-28.02-49.5-28.02-89.58v-237.35h67.33v234.95c0,22.29,3.52,38.2,10.58,47.74,7.05,9.54,17.31,14.31,30.78,14.31,9.46,0,17.27-2.04,23.45-6.13,6.17-4.09,10.82-10.7,13.95-19.84s4.69-21.32,4.69-36.55v-234.47h66.85Z"/>
      <path class="st7" d="M3191.16,2416.69c-10.26,0-19.24,3.05-26.93,9.14-7.7,6.09-14.07,14.71-19.12,25.85-5.05,11.15-8.82,24.25-11.3,39.32-2.49,15.07-3.73,31.5-3.73,49.3,0,26.13,2.48,48.22,7.46,66.25,4.97,18.04,12.26,31.71,21.88,41,9.62,9.3,21.32,13.95,35.11,13.95,10.9,0,21.24-1.84,31.02-5.53,9.78-3.69,19.48-8.09,29.1-13.23v60.12c-10.1,5.61-20.96,9.86-32.58,12.75-11.63,2.89-24.09,4.33-37.39,4.33-26.45,0-48.94-7.01-67.45-21.04-18.52-14.03-32.67-34.47-42.45-61.32-9.78-26.85-14.67-59.44-14.67-97.75,0-26.29,2.77-50.46,8.3-72.5,5.53-22.04,13.67-41.2,24.41-57.47,10.74-16.27,23.93-28.9,39.56-37.88,15.63-8.98,33.55-13.47,53.75-13.47,14.11,0,27.73,1.77,40.88,5.29,13.14,3.53,25.81,8.98,38,16.35l-19.24,55.79c-8.66-5.93-17.4-10.62-26.21-14.07-8.82-3.45-18.28-5.17-28.38-5.17Z"/>
      <path class="st7" d="M3415.77,2715.12h-66.61v-293.14h-65.41v-58.44h196.95v58.44h-64.93v293.14Z"/>
      <path class="st7" d="M3689.19,2612.2c0,21.16-4.25,39.84-12.75,56.03-8.5,16.2-20.48,28.86-35.95,38-15.47,9.14-33.71,13.71-54.71,13.71-9.78,0-19.24-.6-28.38-1.8-9.14-1.2-18.12-3.21-26.93-6.01-8.82-2.8-17.64-6.53-26.45-11.18v-69.02c12.82,8.34,26.13,14.67,39.92,19,13.79,4.33,26.53,6.49,38.24,6.49,8.66,0,15.83-1.68,21.52-5.05,5.69-3.37,9.94-7.94,12.75-13.71,2.8-5.77,4.21-12.26,4.21-19.48,0-7.7-1.2-14.47-3.61-20.32-2.4-5.85-7.01-11.7-13.83-17.56-6.82-5.85-16.8-12.62-29.94-20.32-10.26-6.09-19.52-12.34-27.78-18.76-8.26-6.41-15.31-13.5-21.16-21.28-5.85-7.77-10.3-16.79-13.35-27.05-3.05-10.26-4.57-22.36-4.57-36.31-.16-19.88,3.73-37.27,11.66-52.18,7.94-14.91,19.4-26.49,34.39-34.75,14.99-8.25,32.98-12.3,53.99-12.14,14.27,0,28.26,1.92,41.96,5.77s26.89,9.3,39.56,16.35l-18.52,59.64c-11.38-6.89-22.12-11.98-32.22-15.27-10.1-3.28-19.56-4.93-28.38-4.93-7.7,0-14.15,1.48-19.36,4.45-5.21,2.97-9.14,7.02-11.78,12.14-2.64,5.13-3.97,10.98-3.97,17.55,0,8.34,1.28,15.39,3.85,21.16,2.56,5.77,7.41,11.42,14.55,16.95,7.13,5.53,17.44,12.14,30.9,19.84,14.59,8.5,26.77,17.52,36.55,27.05,9.78,9.54,17.15,20.2,22.12,31.98,4.97,11.78,7.46,25.45,7.46,41Z"/>
    </g>
    <g>
      <path class="st1" d="M808.29,2807.58c22.19,0,38.68,5.75,49.48,17.24,10.79,11.49,16.19,28.23,16.19,50.22,0,11.04-1.37,21.07-4.1,30.07-2.74,9.01-6.89,16.74-12.46,23.21-5.57,6.47-12.59,11.44-21.04,14.92-8.46,3.48-18.46,5.22-30,5.22h-11.49v77.31h-41.94v-218.2h55.37ZM805.15,2843.25h-10.3v69.4h7.31c6.67,0,12.24-1.24,16.72-3.73,4.48-2.49,7.86-6.47,10.15-11.94,2.29-5.47,3.43-12.69,3.43-21.64,0-11.14-2.26-19.28-6.79-24.4-4.53-5.12-11.37-7.69-20.52-7.69Z"/>
      <path class="st1" d="M953.51,2807.58c16.12,0,29.5,2.34,40.15,7.01,10.65,4.68,18.58,11.69,23.81,21.04,5.22,9.35,7.84,21.09,7.84,35.22,0,8.95-1.1,17.09-3.28,24.4-2.19,7.31-5.6,13.83-10.22,19.55-4.63,5.72-10.52,10.72-17.69,15l44.92,95.97h-46.12l-35.67-85.52h-12.54v85.52h-41.94v-218.2h50.74ZM953.21,2842.95h-8.51v64.18h9.4c9.35,0,16.44-2.83,21.27-8.51,4.82-5.67,7.24-14.23,7.24-25.67,0-10.25-2.41-17.81-7.24-22.69-4.83-4.87-12.21-7.31-22.16-7.31Z"/>
      <path class="st1" d="M1059.32,3025.78v-218.2h41.94v218.2h-41.94Z"/>
      <path class="st1" d="M1291.4,3025.78h-49.25l-63.88-152.23h-1.19c.6,7.07,1.07,13.71,1.42,19.92.35,6.22.6,11.92.75,17.09.15,5.17.22,9.85.22,14.03v101.19h-39.1v-218.2h48.95l63.58,148.8h1.19c-.4-6.87-.75-13.26-1.04-19.18-.3-5.92-.55-11.42-.75-16.49-.2-5.07-.3-9.7-.3-13.88v-99.25h39.4v218.2Z"/>
      <path class="st1" d="M1397.22,3025.78h-41.34v-181.93h-40.6v-36.27h122.23v36.27h-40.3v181.93Z"/>
      <path class="st1" d="M1572.73,2804.75c10.55,0,19.45,1.99,26.72,5.97,7.26,3.98,12.78,9.65,16.57,17.01,3.78,7.36,5.67,16.22,5.67,26.57,0,11.44-2.66,21.79-7.98,31.04-5.32,9.25-12.86,17.76-22.61,25.52l24.48,36.12c2.09-4.68,3.85-10.05,5.3-16.12,1.44-6.07,2.61-12.83,3.51-20.3h41.94c-1.59,11.94-4.4,24.16-8.43,36.64-4.03,12.49-9.28,24.01-15.75,34.55l32.69,44.03h-50.45l-10.75-16.57c-4.88,4.18-9.98,7.71-15.3,10.6-5.32,2.89-11.07,5.1-17.24,6.64-6.17,1.54-13.04,2.31-20.6,2.31-12.44,0-22.81-2.56-31.12-7.69-8.31-5.12-14.53-12.29-18.66-21.49-4.13-9.2-6.19-19.92-6.19-32.16,0-8.75,1.29-16.79,3.88-24.1,2.59-7.31,6.52-14.05,11.79-20.22,5.27-6.17,11.99-11.79,20.15-16.87-4.08-5.67-7.46-11.19-10.15-16.57s-4.68-10.97-5.97-16.79c-1.29-5.82-1.94-12.11-1.94-18.88,0-9.95,2.09-18.6,6.27-25.97,4.18-7.36,10.05-13.08,17.61-17.16,7.56-4.08,16.42-6.12,26.57-6.12ZM1559.3,2931.31c-3.28,2.98-5.92,6.14-7.91,9.48-1.99,3.33-3.46,6.97-4.4,10.9-.95,3.93-1.42,8.33-1.42,13.21,0,7.96,1.89,14.65,5.67,20.07,3.78,5.42,9,8.13,15.67,8.13,5.27,0,9.85-1.14,13.73-3.43,3.88-2.29,7.66-5.62,11.34-10l-32.69-48.36ZM1572.44,2834.45c-3.68,0-6.69,1.62-9.03,4.85-2.34,3.23-3.51,8.13-3.51,14.7,0,4.88.97,10.15,2.91,15.82,1.94,5.67,4.75,11,8.43,15.97,4.68-4.08,8.13-9.03,10.37-14.85s3.36-11.87,3.36-18.13-1.15-10.77-3.43-13.81c-2.29-3.03-5.32-4.55-9.1-4.55Z"/>
      <path class="st1" d="M1846.01,3025.78h-98.06v-218.2h98.06v35.67h-56.12v51.34h52.24v35.82h-52.24v58.95h56.12v36.42Z"/>
      <path class="st1" d="M1959.73,3025.78l-43.13-161.04h-1.19c.5,6.67.9,12.94,1.19,18.8.3,5.87.52,11.29.67,16.27.15,4.98.22,9.45.22,13.43v112.53h-39.1v-218.2h57.76l40.3,149.4h1.04l40.3-149.4h57.46v218.2h-40v-112.83c0-4.48.07-9.18.22-14.1.15-4.92.35-10.2.6-15.82.25-5.62.57-11.62.97-17.98h-1.19l-43.43,160.74h-32.69Z"/>
      <path class="st1" d="M2114.36,2807.58h57.46c22.49,0,39.33,4.4,50.52,13.21s16.79,22.31,16.79,40.52c0,8.56-1.17,16.19-3.51,22.91-2.34,6.72-5.7,12.26-10.07,16.64s-9.65,7.41-15.82,9.1v1.49c7.76,2.09,14.1,5.37,19.03,9.85,4.92,4.48,8.53,10.15,10.82,17.01,2.29,6.87,3.43,14.92,3.43,24.18,0,12.94-2.56,24.13-7.69,33.58-5.12,9.45-12.51,16.77-22.16,21.94-9.65,5.17-21.19,7.76-34.62,7.76h-64.18v-218.2ZM2156.29,2895.94h15.52c8.46,0,14.75-2.44,18.88-7.31,4.13-4.87,6.19-12.04,6.19-21.49,0-8.26-2.14-14.55-6.42-18.88-4.28-4.33-10.7-6.49-19.25-6.49h-14.92v54.18ZM2156.29,2929.22v61.34h18.95c8.36,0,14.63-2.59,18.81-7.76,4.18-5.17,6.27-13.03,6.27-23.58,0-6.47-1.04-11.91-3.13-16.34-2.09-4.43-5.1-7.81-9.03-10.15-3.93-2.34-8.78-3.51-14.55-3.51h-17.31Z"/>
      <path class="st1" d="M2326.14,2807.58c16.12,0,29.5,2.34,40.15,7.01,10.65,4.68,18.58,11.69,23.8,21.04,5.22,9.35,7.84,21.09,7.84,35.22,0,8.95-1.1,17.09-3.28,24.4-2.19,7.31-5.6,13.83-10.22,19.55-4.63,5.72-10.52,10.72-17.69,15l44.92,95.97h-46.12l-35.67-85.52h-12.54v85.52h-41.94v-218.2h50.74ZM2325.84,2842.95h-8.51v64.18h9.4c9.35,0,16.44-2.83,21.27-8.51,4.83-5.67,7.24-14.23,7.24-25.67,0-10.25-2.41-17.81-7.24-22.69-4.83-4.87-12.21-7.31-22.16-7.31Z"/>
      <path class="st1" d="M2580.46,2916.38c0,17.31-1.59,32.91-4.78,46.79-3.19,13.88-7.96,25.7-14.33,35.45-6.37,9.75-14.4,17.21-24.1,22.39-9.7,5.17-21.07,7.76-34.1,7.76s-24.58-2.61-34.33-7.84c-9.75-5.22-17.81-12.76-24.18-22.61-6.37-9.85-11.14-21.69-14.33-35.52-3.19-13.83-4.78-29.4-4.78-46.71,0-24.48,2.93-45.02,8.81-61.64,5.87-16.62,14.58-29.15,26.12-37.61,11.54-8.46,25.77-12.69,42.69-12.69s32.11,4.53,43.5,13.58c11.39,9.06,19.87,21.96,25.45,38.73,5.57,16.77,8.36,36.74,8.36,59.92ZM2468.97,2916.38c0,16.72,1.29,30.67,3.88,41.86,2.59,11.19,6.42,19.6,11.49,25.22,5.07,5.62,11.34,8.43,18.81,8.43s13.85-2.74,18.88-8.21c5.02-5.47,8.8-13.78,11.34-24.92,2.54-11.14,3.81-25.27,3.81-42.39,0-25.57-2.84-44.6-8.51-57.09-5.67-12.49-14.18-18.73-25.52-18.73-7.46,0-13.73,2.84-18.81,8.51-5.07,5.67-8.91,14.13-11.49,25.37-2.59,11.24-3.88,25.22-3.88,41.94Z"/>
      <path class="st1" d="M2613.14,3025.78v-218.2h41.94v218.2h-41.94Z"/>
      <path class="st1" d="M2832.39,2912.65c0,24.38-3.36,44.97-10.07,61.79-6.72,16.82-16.52,29.58-29.4,38.28-12.89,8.71-28.68,13.06-47.39,13.06h-51.34v-218.2h54.48c17.91,0,33.11,4.03,45.59,12.09,12.49,8.06,21.96,19.9,28.43,35.52,6.47,15.62,9.7,34.77,9.7,57.46ZM2789.25,2914.59c0-16.32-1.54-29.7-4.63-40.15-3.09-10.45-7.69-18.16-13.81-23.13-6.12-4.97-13.71-7.46-22.76-7.46h-11.94v145.22h9.1c15.12,0,26.24-6.12,33.36-18.36,7.11-12.24,10.67-30.94,10.67-56.12Z"/>
      <path class="st1" d="M2963.13,3025.78h-98.06v-218.2h98.06v35.67h-56.12v51.34h52.24v35.82h-52.24v58.95h56.12v36.42Z"/>
      <path class="st1" d="M3046.26,2807.58c16.12,0,29.5,2.34,40.15,7.01,10.65,4.68,18.58,11.69,23.8,21.04,5.22,9.35,7.84,21.09,7.84,35.22,0,8.95-1.1,17.09-3.28,24.4-2.19,7.31-5.6,13.83-10.22,19.55-4.63,5.72-10.52,10.72-17.69,15l44.92,95.97h-46.12l-35.67-85.52h-12.54v85.52h-41.94v-218.2h50.74ZM3045.96,2842.95h-8.51v64.18h9.4c9.35,0,16.44-2.83,21.27-8.51,4.83-5.67,7.24-14.23,7.24-25.67,0-10.25-2.41-17.81-7.24-22.69-4.83-4.87-12.21-7.31-22.16-7.31Z"/>
      <path class="st1" d="M3205.21,2896.24l29.1-88.65h43.13l-51.64,134.17v84.03h-41.64v-82.83l-51.64-135.37h43.43l29.25,88.65Z"/>
    </g>
  </g>
  <g id="Layer_4">
    <path class="st5" d="M2021.41,2229.29"/>
    <path class="st2" d="M2003.58,842.8c-130.48,277.89-260.95,555.79-391.43,833.68,143.26-150.39,286.51-300.78,429.77-451.17"/>
    <path class="st0" d="M1598.78,1499.04"/>
    <path class="st0" d="M1252.82,1705.9"/>
    <path class="st0" d="M1164.55,1468.72c2.67,8.02,5.35,16.05,8.02,24.07"/>
  </g>
  <g id="Layer_5">
    <path class="st2" d="M2021.41,2229.29c-.89-251.14-1.78-502.29-2.67-753.43,253.86,224.24,507.72,448.47,761.59,672.71-203.02-306.84-406.03-613.68-609.05-920.52,156.73,139.86,313.45,279.73,470.18,419.59,72.41-73.4,144.82-146.81,217.23-220.21,28.77,126.97,57.53,253.94,86.3,380.9,115.4,134.24,230.79,268.48,346.19,402.73-119.36-234.1-238.73-468.2-358.09-702.29,260.55,240.17,521.1,480.35,781.65,720.52"/>
  </g>
  <g id="Layer_3">
    <path class="st9" d="M2003.58,842.8"/>
    <path class="st2" d="M1172.58,1492.8c-109.08,208.64-218.15,417.28-327.23,625.93,135.83-137.61,271.65-275.22,407.48-412.83,66.28,90.95,132.56,181.89,198.83,272.84,49.04-159.9,98.08-319.8,147.12-479.7-109.97,12.48-219.94,24.97-329.9,37.45,32.96,45.88,65.91,91.76,98.87,137.64-16.79,25-33.57,50-50.36,75"/>
  </g>
</svg>